<svg width="900" height="900" viewBox="0 0 900 900" fill="none" xmlns="http://www.w3.org/2000/svg">
  <defs>
    <radialGradient id="auraGreen" cx="0" cy="0" r="1" gradientUnits="userSpaceOnUse" gradientTransform="translate(455 420) rotate(90) scale(320)">
      <stop stop-color="#8FE39B" stop-opacity="0.85"/>
      <stop offset="1" stop-color="#8FE39B" stop-opacity="0"/>
    </radialGradient>
    <radialGradient id="auraSaffron" cx="0" cy="0" r="1" gradientUnits="userSpaceOnUse" gradientTransform="translate(450 360) rotate(90) scale(300)">
      <stop stop-color="#FFD082" stop-opacity="0.75"/>
      <stop offset="1" stop-color="#FFD082" stop-opacity="0"/>
    </radialGradient>
    <linearGradient id="clothTop" x1="450" y1="420" x2="450" y2="700" gradientUnits="userSpaceOnUse">
      <stop stop-color="#F6F2DA"/>
      <stop offset="1" stop-color="#A3D7A7"/>
    </linearGradient>
    <linearGradient id="clothBottom" x1="330" y1="640" x2="570" y2="760" gradientUnits="userSpaceOnUse">
      <stop stop-color="#2F8C74"/>
      <stop offset="1" stop-color="#195B56"/>
    </linearGradient>
    <linearGradient id="skinTone" x1="450" y1="310" x2="450" y2="530" gradientUnits="userSpaceOnUse">
      <stop stop-color="#F2C9A2"/>
      <stop offset="1" stop-color="#E4A980"/>
    </linearGradient>
    <linearGradient id="skinFace" x1="450" y1="276" x2="450" y2="402" gradientUnits="userSpaceOnUse">
      <stop stop-color="#F6D2AF"/>
      <stop offset="1" stop-color="#E9B588"/>
    </linearGradient>
    <linearGradient id="lipTone" x1="450" y1="374" x2="450" y2="388" gradientUnits="userSpaceOnUse">
      <stop stop-color="#C86E63"/>
      <stop offset="1" stop-color="#B65C54"/>
    </linearGradient>
    <linearGradient id="hairTone" x1="450" y1="240" x2="450" y2="360" gradientUnits="userSpaceOnUse">
      <stop stop-color="#3E3235"/>
      <stop offset="1" stop-color="#2D2430"/>
    </linearGradient>
    <linearGradient id="brainGrad" x1="385" y1="160" x2="515" y2="160" gradientUnits="userSpaceOnUse">
      <stop stop-color="#3EA564"/>
      <stop offset="1" stop-color="#F3B948"/>
    </linearGradient>
    <filter id="softBlur" x="150" y="120" width="600" height="600" filterUnits="userSpaceOnUse" color-interpolation-filters="sRGB">
      <feGaussianBlur stdDeviation="26"/>
    </filter>
    <filter id="dropSoft" x="210" y="230" width="480" height="570" filterUnits="userSpaceOnUse" color-interpolation-filters="sRGB">
      <feOffset dy="14"/>
      <feGaussianBlur stdDeviation="16"/>
      <feColorMatrix type="matrix" values="0 0 0 0 0.06 0 0 0 0 0.14 0 0 0 0 0.12 0 0 0 0.18 0"/>
      <feBlend mode="normal" in2="SourceGraphic" result="shape"/>
    </filter>
  </defs>

  <circle cx="450" cy="430" r="290" fill="url(#auraGreen)"/>
  <circle cx="450" cy="370" r="280" fill="url(#auraSaffron)"/>
  <g filter="url(#softBlur)" opacity="0.45">
    <circle cx="320" cy="420" r="120" fill="#B8EAC1"/>
    <circle cx="600" cy="420" r="130" fill="#FFE1A8"/>
  </g>

  <ellipse cx="450" cy="760" rx="280" ry="42" fill="#90D7A2" opacity="0.55"/>

  <g filter="url(#dropSoft)">
    <path d="M450 262c48 0 84 32 84 74s-36 74-84 74-84-32-84-74 36-74 84-74Z" fill="url(#skinTone)"/>
    <ellipse cx="366" cy="336" rx="11" ry="20" fill="url(#skinTone)"/>
    <ellipse cx="534" cy="336" rx="11" ry="20" fill="url(#skinTone)"/>
    <ellipse cx="450" cy="340" rx="67" ry="62" fill="url(#skinFace)"/>
    <path d="M374 324c4-48 30-78 76-78 46 0 72 30 76 78-14-12-30-20-48-20s-34 8-52 20c-18-12-34-20-52-20Z" fill="url(#hairTone)"/>
    <path d="M389 303c12-14 33-24 61-24 28 0 48 10 61 24-10-26-29-41-61-41s-51 15-61 41Z" fill="#4B3B43"/>
    <path d="M389 321c12-10 24-15 37-15 12 0 22 4 24 12 2-8 12-12 24-12 13 0 25 5 37 15-11-22-28-33-61-33s-50 11-61 33Z" fill="#352B35"/>
    <path d="M414 323c8-4 16-6 23-6" stroke="#2C2330" stroke-width="3" stroke-linecap="round"/>
    <path d="M486 323c-8-4-16-6-23-6" stroke="#2C2330" stroke-width="3" stroke-linecap="round"/>
    <path d="M409 341c8 7 16 7 24 0" stroke="#2C2330" stroke-width="3.2" stroke-linecap="round"/>
    <path d="M491 341c-8 7-16 7-24 0" stroke="#2C2330" stroke-width="3.2" stroke-linecap="round"/>
    <path d="M440 352c-3 8-3 14 1 18" stroke="#C18462" stroke-width="2.8" stroke-linecap="round"/>
    <path d="M430 375c8 8 32 8 40 0" stroke="url(#lipTone)" stroke-width="3.2" stroke-linecap="round"/>
    <path d="M432 377c7 5 29 5 36 0" stroke="#ECA09A" stroke-opacity="0.46" stroke-width="2" stroke-linecap="round"/>
    <circle cx="416" cy="357" r="8" fill="#F0A996" fill-opacity="0.26"/>
    <circle cx="484" cy="357" r="8" fill="#F0A996" fill-opacity="0.26"/>
    <path d="M403 317c8-6 18-8 31-5" stroke="#2E2431" stroke-width="3.2" stroke-linecap="round"/>
    <path d="M497 317c-8-6-18-8-31-5" stroke="#2E2431" stroke-width="3.2" stroke-linecap="round"/>
    <path d="M448 330c1-2 3-2 4 0" stroke="#B67E62" stroke-width="2.4" stroke-linecap="round"/>

    <rect x="432" y="396" width="36" height="44" rx="14" fill="url(#skinTone)"/>

    <path d="M286 596c14-96 66-160 164-160s150 64 164 160c-22 28-58 38-98 38H384c-40 0-76-10-98-38Z" fill="url(#clothTop)"/>

    <path d="M286 604c20 72 82 116 164 116s144-44 164-116c-24-18-54-28-86-28H372c-32 0-62 10-86 28Z" fill="url(#clothBottom)"/>

    <path d="M304 626c-42 22-68 52-84 92 28 6 50 2 70-12 26-18 36-40 38-70l-24-10Z" fill="url(#skinTone)"/>
    <path d="M596 626c42 22 68 52 84 92-28 6-50 2-70-12-26-18-36-40-38-70l24-10Z" fill="url(#skinTone)"/>

    <ellipse cx="338" cy="708" rx="108" ry="44" fill="url(#clothBottom)"/>
    <ellipse cx="562" cy="708" rx="108" ry="44" fill="url(#clothBottom)"/>
    <ellipse cx="450" cy="706" rx="122" ry="40" fill="#2B6D68"/>
  </g>

  <g>
    <circle cx="450" cy="170" r="74" fill="white" opacity="0.72"/>
    <circle cx="450" cy="170" r="66" fill="url(#brainGrad)"/>
    <path d="M423 188c-18 0-30-11-30-29s14-31 30-31c7 0 12 2 16 6 4-4 9-6 16-6 18 0 30 13 30 31s-12 29-30 29" stroke="white" stroke-width="6" stroke-linecap="round"/>
    <path d="M451 131v56M437 140c-7 4-10 11-10 19M465 140c7 4 10 11 10 19M451 156c-8 0-14 7-14 15M451 156c8 0 14 7 14 15" stroke="white" stroke-width="4" stroke-linecap="round"/>
  </g>

  <g opacity="0.82">
    <path d="M232 548c42-28 96-36 158-26" stroke="#7BD08D" stroke-width="8" stroke-linecap="round"/>
    <path d="M214 578c52-30 122-42 194-32" stroke="#9BE2A9" stroke-width="8" stroke-linecap="round"/>
    <path d="M668 548c-42-28-96-36-158-26" stroke="#F6C772" stroke-width="8" stroke-linecap="round"/>
    <path d="M686 578c-52-30-122-42-194-32" stroke="#FFDCA1" stroke-width="8" stroke-linecap="round"/>
  </g>
</svg>
